<mxfile host="app.diagrams.net" agent="Mozilla/5.0 (Windows NT 10.0; Win64; x64) AppleWebKit/537.36 (KHTML, like Gecko) Chrome/128.0.0.0 Safari/537.36" version="24.7.12">
  <diagram name="第 1 页" id="xoAS6PGwDUxOYHN9ULwU">
    <mxGraphModel dx="933" dy="465" grid="1" gridSize="10" guides="1" tooltips="1" connect="1" arrows="1" fold="1" page="1" pageScale="1" pageWidth="827" pageHeight="1169" math="0" shadow="0">
      <root>
        <mxCell id="0" />
        <mxCell id="1" parent="0" />
        <mxCell id="ku0u-N5KsXxJepIfTLJs-31" value="" style="group" vertex="1" connectable="0" parent="1">
          <mxGeometry y="80" width="960" height="610" as="geometry" />
        </mxCell>
        <mxCell id="ku0u-N5KsXxJepIfTLJs-9" value="" style="rounded=1;whiteSpace=wrap;html=1;sketch=1;hachureGap=4;jiggle=2;curveFitting=1;fontFamily=Architects Daughter;fontSource=https%3A%2F%2Ffonts.googleapis.com%2Fcss%3Ffamily%3DArchitects%2BDaughter;labelBackgroundColor=none;fillColor=#A8DADC;strokeColor=#457B9D;fontColor=#1D3557;" vertex="1" parent="ku0u-N5KsXxJepIfTLJs-31">
          <mxGeometry x="280" y="120" width="250" height="200" as="geometry" />
        </mxCell>
        <mxCell id="ku0u-N5KsXxJepIfTLJs-6" value="" style="rounded=1;whiteSpace=wrap;html=1;sketch=1;hachureGap=4;jiggle=2;curveFitting=1;fontFamily=Architects Daughter;fontSource=https%3A%2F%2Ffonts.googleapis.com%2Fcss%3Ffamily%3DArchitects%2BDaughter;dashed=1;dashPattern=8 8;labelBackgroundColor=none;fillColor=#A8DADC;strokeColor=#457B9D;fontColor=#1D3557;" vertex="1" parent="ku0u-N5KsXxJepIfTLJs-31">
          <mxGeometry x="640" width="320" height="440" as="geometry" />
        </mxCell>
        <mxCell id="ku0u-N5KsXxJepIfTLJs-1" value="&lt;b style=&quot;&quot;&gt;&lt;font color=&quot;#ff66ff&quot; style=&quot;font-size: 12px;&quot;&gt;Client 1&lt;/font&gt;&lt;/b&gt;&lt;div style=&quot;&quot;&gt;&lt;div style=&quot;&quot;&gt;&lt;b&gt;&lt;font color=&quot;#ff66ff&quot; style=&quot;font-size: 12px;&quot;&gt;Clash For Windows&lt;/font&gt;&lt;/b&gt;&lt;/div&gt;&lt;div style=&quot;&quot;&gt;&lt;b&gt;&lt;font color=&quot;#ff66ff&quot; style=&quot;font-size: 12px;&quot;&gt;or&lt;/font&gt;&lt;/b&gt;&lt;/div&gt;&lt;div style=&quot;&quot;&gt;&lt;b style=&quot;&quot;&gt;&lt;font color=&quot;#ff66ff&quot; style=&quot;font-size: 12px;&quot;&gt;Proifier&lt;/font&gt;&lt;/b&gt;&lt;/div&gt;&lt;/div&gt;" style="rounded=1;whiteSpace=wrap;html=1;sketch=1;hachureGap=4;jiggle=2;curveFitting=1;fontFamily=Architects Daughter;fontSource=https%3A%2F%2Ffonts.googleapis.com%2Fcss%3Ffamily%3DArchitects%2BDaughter;labelBackgroundColor=none;fillColor=#A8DADC;strokeColor=#457B9D;fontColor=#1D3557;" vertex="1" parent="ku0u-N5KsXxJepIfTLJs-31">
          <mxGeometry y="80" width="160" height="80" as="geometry" />
        </mxCell>
        <mxCell id="ku0u-N5KsXxJepIfTLJs-2" value="&lt;font size=&quot;1&quot; color=&quot;#00cc00&quot;&gt;&lt;b style=&quot;font-size: 15px;&quot;&gt;FRPS&lt;/b&gt;&lt;/font&gt;" style="rounded=1;whiteSpace=wrap;html=1;sketch=1;hachureGap=4;jiggle=2;curveFitting=1;fontFamily=Architects Daughter;fontSource=https%3A%2F%2Ffonts.googleapis.com%2Fcss%3Ffamily%3DArchitects%2BDaughter;labelBackgroundColor=none;fillColor=#A8DADC;strokeColor=#457B9D;fontColor=#1D3557;" vertex="1" parent="ku0u-N5KsXxJepIfTLJs-31">
          <mxGeometry x="320" y="230" width="160" height="60" as="geometry" />
        </mxCell>
        <mxCell id="ku0u-N5KsXxJepIfTLJs-3" value="&lt;b&gt;&lt;font color=&quot;#ff8000&quot;&gt;FRPC&lt;/font&gt;&lt;/b&gt;&lt;div&gt;&lt;b&gt;&lt;font color=&quot;#ff8000&quot;&gt;PVE&lt;/font&gt;&lt;/b&gt;&lt;/div&gt;&lt;div&gt;&lt;b&gt;&lt;font color=&quot;#ff8000&quot;&gt;Clash for linux&lt;/font&gt;&lt;/b&gt;&lt;/div&gt;&lt;div&gt;&lt;b&gt;&lt;font color=&quot;#ff8000&quot;&gt;UP&lt;sup&gt;2&lt;/sup&gt;-board&lt;/font&gt;&lt;/b&gt;&lt;/div&gt;&lt;div&gt;&lt;b&gt;&lt;font color=&quot;#ff8000&quot;&gt;x86——64 platfporm&lt;/font&gt;&lt;/b&gt;&lt;/div&gt;" style="rounded=1;whiteSpace=wrap;html=1;sketch=1;hachureGap=4;jiggle=2;curveFitting=1;fontFamily=Architects Daughter;fontSource=https%3A%2F%2Ffonts.googleapis.com%2Fcss%3Ffamily%3DArchitects%2BDaughter;labelBackgroundColor=none;fillColor=#A8DADC;strokeColor=#457B9D;fontColor=#1D3557;" vertex="1" parent="ku0u-N5KsXxJepIfTLJs-31">
          <mxGeometry x="720" y="80" width="160" height="80" as="geometry" />
        </mxCell>
        <mxCell id="ku0u-N5KsXxJepIfTLJs-4" value="&lt;font color=&quot;#ff8000&quot;&gt;&lt;b&gt;FPRC&lt;/b&gt;&lt;/font&gt;&lt;div&gt;&lt;font color=&quot;#ff8000&quot;&gt;&lt;b&gt;PVE&lt;/b&gt;&lt;/font&gt;&lt;/div&gt;&lt;div&gt;&lt;font color=&quot;#ff8000&quot;&gt;&lt;b&gt;clash for linux&lt;br&gt;&lt;/b&gt;&lt;/font&gt;&lt;div&gt;&lt;font color=&quot;#ff8000&quot;&gt;&lt;b&gt;ROCK64&lt;/b&gt;&lt;/font&gt;&lt;/div&gt;&lt;div&gt;&lt;font color=&quot;#ff8000&quot;&gt;&lt;b&gt;ARM64 platform&lt;/b&gt;&lt;/font&gt;&lt;/div&gt;&lt;/div&gt;" style="rounded=1;whiteSpace=wrap;html=1;sketch=1;hachureGap=4;jiggle=2;curveFitting=1;fontFamily=Architects Daughter;fontSource=https%3A%2F%2Ffonts.googleapis.com%2Fcss%3Ffamily%3DArchitects%2BDaughter;labelBackgroundColor=none;fillColor=#A8DADC;strokeColor=#457B9D;fontColor=#1D3557;" vertex="1" parent="ku0u-N5KsXxJepIfTLJs-31">
          <mxGeometry x="720" y="200" width="160" height="80" as="geometry" />
        </mxCell>
        <mxCell id="ku0u-N5KsXxJepIfTLJs-5" value="&lt;b&gt;&lt;font color=&quot;#ff8000&quot;&gt;FPRC&lt;/font&gt;&lt;/b&gt;&lt;div&gt;&lt;b&gt;&lt;font color=&quot;#ff8000&quot;&gt;PVE&lt;/font&gt;&lt;/b&gt;&lt;/div&gt;&lt;div&gt;&lt;b&gt;&lt;font color=&quot;#ff8000&quot;&gt;clash for linux&lt;br&gt;&lt;/font&gt;&lt;/b&gt;&lt;div&gt;&lt;b&gt;&lt;font color=&quot;#ff8000&quot;&gt;ROCK960&lt;/font&gt;&lt;/b&gt;&lt;/div&gt;&lt;div&gt;&lt;b&gt;&lt;font color=&quot;#ff8000&quot;&gt;ARM64 platform&lt;/font&gt;&lt;/b&gt;&lt;/div&gt;&lt;/div&gt;" style="rounded=1;whiteSpace=wrap;html=1;sketch=1;hachureGap=4;jiggle=2;curveFitting=1;fontFamily=Architects Daughter;fontSource=https%3A%2F%2Ffonts.googleapis.com%2Fcss%3Ffamily%3DArchitects%2BDaughter;labelBackgroundColor=none;fillColor=#A8DADC;strokeColor=#457B9D;fontColor=#1D3557;" vertex="1" parent="ku0u-N5KsXxJepIfTLJs-31">
          <mxGeometry x="720" y="320" width="160" height="80" as="geometry" />
        </mxCell>
        <mxCell id="ku0u-N5KsXxJepIfTLJs-7" value="&lt;b style=&quot;font-size: 14px;&quot;&gt;&lt;font color=&quot;#cc6600&quot;&gt;PVE C&lt;span style=&quot;white-space: pre;&quot; data-slate-fragment=&quot;JTVCJTdCJTIydHlwZSUyMiUzQSUyMnBhcmFncmFwaCUyMiUyQyUyMmNoaWxkcmVuJTIyJTNBJTVCJTdCJTIyaWQlMjIlM0ElMjJWZHdKSjVQMHZlJTIyJTJDJTIycGFyYUlkeCUyMiUzQTAlMkMlMjJzcmMlMjIlM0ElMjJjbHVzdGVyJTIyJTJDJTIyZHN0JTIyJTNBJTIyJUU3JUIwJTg3JTIyJTJDJTIybWV0YWRhdGElMjIlM0ElMjIlMjIlMkMlMjJtZXRhRGF0YSUyMiUzQSU1QiU1RCUyQyUyMnRleHQlMjIlM0ElMjJjbHVzdGVyJTIyJTdEJTVEJTdEJTVE&quot;&gt;luster&lt;/span&gt;&lt;/font&gt;&lt;/b&gt;" style="text;html=1;align=center;verticalAlign=middle;whiteSpace=wrap;rounded=1;fontFamily=Architects Daughter;fontSource=https%3A%2F%2Ffonts.googleapis.com%2Fcss%3Ffamily%3DArchitects%2BDaughter;labelBackgroundColor=none;fontColor=#1D3557;" vertex="1" parent="ku0u-N5KsXxJepIfTLJs-31">
          <mxGeometry x="760" y="20" width="90" height="30" as="geometry" />
        </mxCell>
        <mxCell id="ku0u-N5KsXxJepIfTLJs-8" value="&lt;b&gt;&lt;font color=&quot;#ff66ff&quot;&gt;Client 2&lt;/font&gt;&lt;/b&gt;&lt;div&gt;&lt;b&gt;&lt;font color=&quot;#ff66ff&quot;&gt;Clash For Windows&lt;/font&gt;&lt;/b&gt;&lt;/div&gt;&lt;div&gt;&lt;b&gt;&lt;font color=&quot;#ff66ff&quot;&gt;or&lt;/font&gt;&lt;/b&gt;&lt;/div&gt;&lt;div&gt;&lt;b&gt;&lt;font color=&quot;#ff66ff&quot;&gt;Proifier&lt;/font&gt;&lt;/b&gt;&lt;/div&gt;" style="rounded=1;whiteSpace=wrap;html=1;sketch=1;hachureGap=4;jiggle=2;curveFitting=1;fontFamily=Architects Daughter;fontSource=https%3A%2F%2Ffonts.googleapis.com%2Fcss%3Ffamily%3DArchitects%2BDaughter;labelBackgroundColor=none;fillColor=#A8DADC;strokeColor=#457B9D;fontColor=#1D3557;" vertex="1" parent="ku0u-N5KsXxJepIfTLJs-31">
          <mxGeometry y="320" width="160" height="80" as="geometry" />
        </mxCell>
        <mxCell id="ku0u-N5KsXxJepIfTLJs-10" value="&lt;b&gt;&lt;font style=&quot;font-size: 18px;&quot; color=&quot;#000000&quot;&gt;Internet&lt;/font&gt;&lt;/b&gt;" style="ellipse;shape=cloud;whiteSpace=wrap;html=1;sketch=1;hachureGap=4;jiggle=2;curveFitting=1;fontFamily=Architects Daughter;fontSource=https%3A%2F%2Ffonts.googleapis.com%2Fcss%3Ffamily%3DArchitects%2BDaughter;labelBackgroundColor=none;fillColor=#A8DADC;strokeColor=#457B9D;fontColor=#1D3557;rounded=1;" vertex="1" parent="ku0u-N5KsXxJepIfTLJs-31">
          <mxGeometry x="320" y="530" width="280" height="80" as="geometry" />
        </mxCell>
        <mxCell id="ku0u-N5KsXxJepIfTLJs-11" value="&lt;b&gt;&lt;font color=&quot;#ff66b3&quot;&gt;Cloud ECS&lt;/font&gt;&lt;/b&gt;&lt;div&gt;&lt;b&gt;&lt;font color=&quot;#ff66b3&quot;&gt;Public IPv4&lt;br&gt;&lt;/font&gt;&lt;/b&gt;&lt;/div&gt;&lt;div&gt;&lt;b&gt;&lt;font color=&quot;#ff66b3&quot;&gt;fixed bandwidth (3Mbps)&lt;/font&gt;&lt;/b&gt;&lt;br&gt;&lt;/div&gt;" style="text;html=1;align=center;verticalAlign=middle;whiteSpace=wrap;rounded=1;fontFamily=Architects Daughter;fontSource=https%3A%2F%2Ffonts.googleapis.com%2Fcss%3Ffamily%3DArchitects%2BDaughter;labelBackgroundColor=none;fontColor=#1D3557;" vertex="1" parent="ku0u-N5KsXxJepIfTLJs-31">
          <mxGeometry x="335" y="140" width="145" height="50" as="geometry" />
        </mxCell>
        <mxCell id="ku0u-N5KsXxJepIfTLJs-13" value="" style="curved=1;endArrow=classic;html=1;rounded=1;sketch=1;hachureGap=4;jiggle=2;curveFitting=1;fontFamily=Architects Daughter;fontSource=https%3A%2F%2Ffonts.googleapis.com%2Fcss%3Ffamily%3DArchitects%2BDaughter;entryX=0.839;entryY=0.24;entryDx=0;entryDy=0;entryPerimeter=0;exitX=0.5;exitY=1;exitDx=0;exitDy=0;dashed=1;dashPattern=8 8;labelBackgroundColor=none;strokeColor=#457B9D;fontColor=default;" edge="1" parent="ku0u-N5KsXxJepIfTLJs-31" source="ku0u-N5KsXxJepIfTLJs-5" target="ku0u-N5KsXxJepIfTLJs-10">
          <mxGeometry width="50" height="50" relative="1" as="geometry">
            <mxPoint x="720" y="520" as="sourcePoint" />
            <mxPoint x="770" y="470" as="targetPoint" />
            <Array as="points">
              <mxPoint x="780" y="560" />
              <mxPoint x="640" y="490" />
            </Array>
          </mxGeometry>
        </mxCell>
        <mxCell id="ku0u-N5KsXxJepIfTLJs-30" value="Forward" style="edgeLabel;html=1;align=center;verticalAlign=middle;resizable=0;points=[];sketch=1;hachureGap=4;jiggle=2;curveFitting=1;strokeColor=#457B9D;fontFamily=Architects Daughter;fontSource=https%3A%2F%2Ffonts.googleapis.com%2Fcss%3Ffamily%3DArchitects%2BDaughter;fontColor=#1D3557;fillColor=#A8DADC;" vertex="1" connectable="0" parent="ku0u-N5KsXxJepIfTLJs-13">
          <mxGeometry x="0.3794" y="9" relative="1" as="geometry">
            <mxPoint as="offset" />
          </mxGeometry>
        </mxCell>
        <mxCell id="ku0u-N5KsXxJepIfTLJs-14" value="" style="curved=1;endArrow=classic;html=1;rounded=1;sketch=1;hachureGap=4;jiggle=2;curveFitting=1;fontFamily=Architects Daughter;fontSource=https%3A%2F%2Ffonts.googleapis.com%2Fcss%3Ffamily%3DArchitects%2BDaughter;entryX=0.625;entryY=0.2;entryDx=0;entryDy=0;entryPerimeter=0;exitX=0;exitY=1;exitDx=0;exitDy=0;dashed=1;dashPattern=8 8;labelBackgroundColor=none;strokeColor=#457B9D;fontColor=default;" edge="1" parent="ku0u-N5KsXxJepIfTLJs-31" source="ku0u-N5KsXxJepIfTLJs-4" target="ku0u-N5KsXxJepIfTLJs-10">
          <mxGeometry width="50" height="50" relative="1" as="geometry">
            <mxPoint x="550" y="340" as="sourcePoint" />
            <mxPoint x="480" y="410" as="targetPoint" />
            <Array as="points">
              <mxPoint x="680" y="420" />
              <mxPoint x="510" y="400" />
            </Array>
          </mxGeometry>
        </mxCell>
        <mxCell id="ku0u-N5KsXxJepIfTLJs-29" value="Forward" style="edgeLabel;html=1;align=center;verticalAlign=middle;resizable=0;points=[];sketch=1;hachureGap=4;jiggle=2;curveFitting=1;strokeColor=#457B9D;fontFamily=Architects Daughter;fontSource=https%3A%2F%2Ffonts.googleapis.com%2Fcss%3Ffamily%3DArchitects%2BDaughter;fontColor=#1D3557;fillColor=#A8DADC;" vertex="1" connectable="0" parent="ku0u-N5KsXxJepIfTLJs-14">
          <mxGeometry x="0.1447" y="7" relative="1" as="geometry">
            <mxPoint as="offset" />
          </mxGeometry>
        </mxCell>
        <mxCell id="ku0u-N5KsXxJepIfTLJs-15" value="" style="curved=1;endArrow=classic;html=1;rounded=1;sketch=1;hachureGap=4;jiggle=2;curveFitting=1;fontFamily=Architects Daughter;fontSource=https%3A%2F%2Ffonts.googleapis.com%2Fcss%3Ffamily%3DArchitects%2BDaughter;exitX=1;exitY=0.5;exitDx=0;exitDy=0;entryX=0;entryY=0.5;entryDx=0;entryDy=0;dashed=1;dashPattern=8 8;labelBackgroundColor=none;strokeColor=#457B9D;fontColor=default;" edge="1" parent="ku0u-N5KsXxJepIfTLJs-31" source="ku0u-N5KsXxJepIfTLJs-1" target="ku0u-N5KsXxJepIfTLJs-2">
          <mxGeometry width="50" height="50" relative="1" as="geometry">
            <mxPoint x="270" y="410" as="sourcePoint" />
            <mxPoint x="320" y="360" as="targetPoint" />
            <Array as="points">
              <mxPoint x="220" y="140" />
              <mxPoint x="260" y="220" />
            </Array>
          </mxGeometry>
        </mxCell>
        <mxCell id="ku0u-N5KsXxJepIfTLJs-24" value="Forward" style="edgeLabel;html=1;align=center;verticalAlign=middle;resizable=0;points=[];sketch=1;hachureGap=4;jiggle=2;curveFitting=1;strokeColor=#457B9D;fontFamily=Architects Daughter;fontSource=https%3A%2F%2Ffonts.googleapis.com%2Fcss%3Ffamily%3DArchitects%2BDaughter;fontColor=#1D3557;fillColor=#A8DADC;" vertex="1" connectable="0" parent="ku0u-N5KsXxJepIfTLJs-15">
          <mxGeometry x="-0.2679" y="-1" relative="1" as="geometry">
            <mxPoint as="offset" />
          </mxGeometry>
        </mxCell>
        <mxCell id="ku0u-N5KsXxJepIfTLJs-16" value="" style="curved=1;endArrow=classic;html=1;rounded=1;sketch=1;hachureGap=4;jiggle=2;curveFitting=1;fontFamily=Architects Daughter;fontSource=https%3A%2F%2Ffonts.googleapis.com%2Fcss%3Ffamily%3DArchitects%2BDaughter;entryX=0.5;entryY=1;entryDx=0;entryDy=0;exitX=1;exitY=0.5;exitDx=0;exitDy=0;dashed=1;dashPattern=8 8;labelBackgroundColor=none;strokeColor=#457B9D;fontColor=default;" edge="1" parent="ku0u-N5KsXxJepIfTLJs-31" source="ku0u-N5KsXxJepIfTLJs-8" target="ku0u-N5KsXxJepIfTLJs-2">
          <mxGeometry width="50" height="50" relative="1" as="geometry">
            <mxPoint x="250" y="410" as="sourcePoint" />
            <mxPoint x="300" y="360" as="targetPoint" />
            <Array as="points">
              <mxPoint x="200" y="330" />
              <mxPoint x="250" y="380" />
              <mxPoint x="340" y="380" />
            </Array>
          </mxGeometry>
        </mxCell>
        <mxCell id="ku0u-N5KsXxJepIfTLJs-25" value="Forward" style="edgeLabel;html=1;align=center;verticalAlign=middle;resizable=0;points=[];sketch=1;hachureGap=4;jiggle=2;curveFitting=1;strokeColor=#457B9D;fontFamily=Architects Daughter;fontSource=https%3A%2F%2Ffonts.googleapis.com%2Fcss%3Ffamily%3DArchitects%2BDaughter;fontColor=#1D3557;fillColor=#A8DADC;" vertex="1" connectable="0" parent="ku0u-N5KsXxJepIfTLJs-16">
          <mxGeometry x="0.1728" y="2" relative="1" as="geometry">
            <mxPoint as="offset" />
          </mxGeometry>
        </mxCell>
        <mxCell id="ku0u-N5KsXxJepIfTLJs-17" value="" style="curved=1;endArrow=classic;html=1;rounded=1;sketch=1;hachureGap=4;jiggle=2;curveFitting=1;fontFamily=Architects Daughter;fontSource=https%3A%2F%2Ffonts.googleapis.com%2Fcss%3Ffamily%3DArchitects%2BDaughter;exitX=0.5;exitY=1;exitDx=0;exitDy=0;entryX=0.25;entryY=0.25;entryDx=0;entryDy=0;entryPerimeter=0;dashed=1;dashPattern=8 8;labelBackgroundColor=none;strokeColor=#457B9D;fontColor=default;" edge="1" parent="ku0u-N5KsXxJepIfTLJs-31" source="ku0u-N5KsXxJepIfTLJs-8" target="ku0u-N5KsXxJepIfTLJs-10">
          <mxGeometry width="50" height="50" relative="1" as="geometry">
            <mxPoint x="120" y="560" as="sourcePoint" />
            <mxPoint x="170" y="510" as="targetPoint" />
            <Array as="points">
              <mxPoint x="210" y="480" />
              <mxPoint x="320" y="450" />
            </Array>
          </mxGeometry>
        </mxCell>
        <mxCell id="ku0u-N5KsXxJepIfTLJs-28" value="Forward" style="edgeLabel;html=1;align=center;verticalAlign=middle;resizable=0;points=[];sketch=1;hachureGap=4;jiggle=2;curveFitting=1;strokeColor=#457B9D;fontFamily=Architects Daughter;fontSource=https%3A%2F%2Ffonts.googleapis.com%2Fcss%3Ffamily%3DArchitects%2BDaughter;fontColor=#1D3557;fillColor=#A8DADC;" vertex="1" connectable="0" parent="ku0u-N5KsXxJepIfTLJs-17">
          <mxGeometry x="0.292" y="-12" relative="1" as="geometry">
            <mxPoint as="offset" />
          </mxGeometry>
        </mxCell>
        <mxCell id="ku0u-N5KsXxJepIfTLJs-21" value="" style="endArrow=classic;html=1;rounded=1;sketch=1;hachureGap=4;jiggle=2;curveFitting=1;fontFamily=Architects Daughter;fontSource=https%3A%2F%2Ffonts.googleapis.com%2Fcss%3Ffamily%3DArchitects%2BDaughter;entryX=0.75;entryY=0;entryDx=0;entryDy=0;exitX=0;exitY=0.5;exitDx=0;exitDy=0;startArrow=classic;startFill=1;dashed=1;dashPattern=8 8;labelBackgroundColor=none;strokeColor=#457B9D;fontColor=default;" edge="1" parent="ku0u-N5KsXxJepIfTLJs-31" source="ku0u-N5KsXxJepIfTLJs-3" target="ku0u-N5KsXxJepIfTLJs-2">
          <mxGeometry width="50" height="50" relative="1" as="geometry">
            <mxPoint x="610" y="200" as="sourcePoint" />
            <mxPoint x="660" y="150" as="targetPoint" />
            <Array as="points">
              <mxPoint x="610" y="120" />
              <mxPoint x="610" y="200" />
              <mxPoint x="530" y="200" />
              <mxPoint x="440" y="200" />
            </Array>
          </mxGeometry>
        </mxCell>
        <mxCell id="ku0u-N5KsXxJepIfTLJs-26" value="Reverse" style="edgeLabel;html=1;align=center;verticalAlign=middle;resizable=0;points=[];sketch=1;hachureGap=4;jiggle=2;curveFitting=1;strokeColor=#457B9D;fontFamily=Architects Daughter;fontSource=https%3A%2F%2Ffonts.googleapis.com%2Fcss%3Ffamily%3DArchitects%2BDaughter;fontColor=#1D3557;fillColor=#A8DADC;" vertex="1" connectable="0" parent="ku0u-N5KsXxJepIfTLJs-21">
          <mxGeometry x="0.0704" y="3" relative="1" as="geometry">
            <mxPoint as="offset" />
          </mxGeometry>
        </mxCell>
        <mxCell id="ku0u-N5KsXxJepIfTLJs-23" value="" style="endArrow=classic;startArrow=classic;html=1;rounded=1;sketch=1;hachureGap=4;jiggle=2;curveFitting=1;fontFamily=Architects Daughter;fontSource=https%3A%2F%2Ffonts.googleapis.com%2Fcss%3Ffamily%3DArchitects%2BDaughter;entryX=0;entryY=0.5;entryDx=0;entryDy=0;exitX=1;exitY=0.5;exitDx=0;exitDy=0;dashed=1;dashPattern=8 8;labelBackgroundColor=none;strokeColor=#457B9D;fontColor=default;" edge="1" parent="ku0u-N5KsXxJepIfTLJs-31" source="ku0u-N5KsXxJepIfTLJs-2" target="ku0u-N5KsXxJepIfTLJs-4">
          <mxGeometry width="50" height="50" relative="1" as="geometry">
            <mxPoint x="560" y="310" as="sourcePoint" />
            <mxPoint x="610" y="260" as="targetPoint" />
            <Array as="points">
              <mxPoint x="600" y="260" />
              <mxPoint x="600" y="240" />
            </Array>
          </mxGeometry>
        </mxCell>
        <mxCell id="ku0u-N5KsXxJepIfTLJs-27" value="Reverse" style="edgeLabel;html=1;align=center;verticalAlign=middle;resizable=0;points=[];sketch=1;hachureGap=4;jiggle=2;curveFitting=1;strokeColor=#457B9D;fontFamily=Architects Daughter;fontSource=https%3A%2F%2Ffonts.googleapis.com%2Fcss%3Ffamily%3DArchitects%2BDaughter;fontColor=#1D3557;fillColor=#A8DADC;" vertex="1" connectable="0" parent="ku0u-N5KsXxJepIfTLJs-23">
          <mxGeometry x="0.1945" relative="1" as="geometry">
            <mxPoint as="offset" />
          </mxGeometry>
        </mxCell>
      </root>
    </mxGraphModel>
  </diagram>
</mxfile>
